o ClearformLogo
v 0.498588 0.5 -0.111223
v 0.493522 0.5 -0.207073
v 0.484864 0.5 -0.2823
v 0.472563 0.5 -0.34043
v 0.45657 0.5 -0.384991
v 0.438269 0.5 -0.417451
v 0.414999 0.5 -0.44578
v 0.396624 0.5 -0.46247
v 0.377433 0.5 -0.474875
v 0.355185 0.5 -0.484465
v 0.328813 0.5 -0.491507
v 0.297251 0.5 -0.496264
v 0.259432 0.5 -0.499002
v 0.20766 0.5 -0.5
v -0.20766 0.5 -0.5
v -0.253859 0.499229 -0.5
v -0.292593 0.49674 -0.5
v -0.324928 0.492267 -0.5
v -0.351931 0.485546 -0.5
v -0.374667 0.47631 -0.5
v -0.394204 0.464296 -0.5
v -0.411608 0.449237 -0.5
v -0.435386 0.421549 -0.5
v -0.454156 0.390107 -0.5
v -0.470645 0.347084 -0.5
v -0.483435 0.290956 -0.5
v -0.492576 0.218194 -0.5
v -0.498118 0.125271 -0.5
v 0.5 0.5 0
v 3.35358e-008 0.5 -0.5
v -0.5 3.06094e-017 -0.5
v 0.498588 0.5 0.111223
v 0.493522 0.5 0.207073
v 0.484864 0.5 0.2823
v 0.472563 0.5 0.34043
v 0.45657 0.5 0.384991
v 0.438269 0.5 0.417451
v 0.414999 0.5 0.44578
v 0.396624 0.5 0.46247
v 0.377433 0.5 0.474875
v 0.355185 0.5 0.484465
v 0.328813 0.5 0.491507
v 0.297251 0.5 0.496264
v 0.259432 0.5 0.499002
v 0.20766 0.5 0.5
v -0.20766 0.5 0.5
v -0.253859 0.499229 0.5
v -0.292593 0.49674 0.5
v -0.324928 0.492267 0.5
v -0.351931 0.485546 0.5
v -0.374667 0.47631 0.5
v -0.394204 0.464296 0.5
v -0.411608 0.449237 0.5
v -0.435386 0.421549 0.5
v -0.454156 0.390107 0.5
v -0.470645 0.347084 0.5
v -0.483435 0.290956 0.5
v -0.492576 0.218194 0.5
v -0.498118 0.125271 0.5
v 4.21804e-008 0.5 0.5
v -0.5 3.06094e-017 0.5
v 0.498588 -0.5 -0.111223
v 0.493522 -0.5 -0.207073
v 0.484864 -0.5 -0.2823
v 0.472563 -0.5 -0.34043
v 0.45657 -0.5 -0.384991
v 0.438269 -0.5 -0.417451
v 0.414999 -0.5 -0.44578
v 0.396624 -0.5 -0.46247
v 0.377433 -0.5 -0.474875
v 0.355185 -0.5 -0.484465
v 0.328813 -0.5 -0.491507
v 0.297251 -0.5 -0.496264
v 0.259432 -0.5 -0.499002
v 0.20766 -0.5 -0.5
v -0.20766 -0.5 -0.5
v -0.253859 -0.499229 -0.5
v -0.292593 -0.49674 -0.5
v -0.324928 -0.492267 -0.5
v -0.351931 -0.485546 -0.5
v -0.374667 -0.47631 -0.5
v -0.394204 -0.464296 -0.5
v -0.411608 -0.449237 -0.5
v -0.435386 -0.421549 -0.5
v -0.454156 -0.390107 -0.5
v -0.470645 -0.347084 -0.5
v -0.483435 -0.290956 -0.5
v -0.492576 -0.218194 -0.5
v -0.498118 -0.125271 -0.5
v 0.5 -0.5 -9.23872e-009
v 3.35358e-008 -0.5 -0.5
v 0.498588 -0.5 0.111223
v 0.493522 -0.5 0.207073
v 0.484864 -0.5 0.2823
v 0.472563 -0.5 0.34043
v 0.45657 -0.5 0.384991
v 0.438269 -0.5 0.417451
v 0.414999 -0.5 0.44578
v 0.396624 -0.5 0.46247
v 0.377433 -0.5 0.474875
v 0.355185 -0.5 0.484465
v 0.328813 -0.5 0.491507
v 0.297251 -0.5 0.496264
v 0.259432 -0.5 0.499002
v 0.20766 -0.5 0.5
v -0.20766 -0.5 0.5
v -0.253859 -0.499229 0.5
v -0.292593 -0.49674 0.5
v -0.324928 -0.492267 0.5
v -0.351931 -0.485546 0.5
v -0.374667 -0.47631 0.5
v -0.394204 -0.464296 0.5
v -0.411608 -0.449237 0.5
v -0.435386 -0.421549 0.5
v -0.454156 -0.390107 0.5
v -0.470645 -0.347084 0.5
v -0.483435 -0.290956 0.5
v -0.492576 -0.218194 0.5
v -0.498118 -0.125271 0.5
v 4.21804e-008 -0.5 0.5
vn 0 -1 0
vn -0.0083416 -0.999965 0
vn -0.0404194 -0.999183 0
vn -0.100646 -0.994922 0
vn -0.189557 -0.98187 0
vn -0.309722 -0.950827 0
vn -0.45163 -0.892205 0
vn -0.591012 -0.806663 0
vn -0.708411 -0.705801 0
vn -0.811616 -0.584191 0
vn -0.899539 -0.436841 0
vn -0.956797 -0.290758 0
vn -0.984811 -0.17363 0
vn -0.995746 -0.0921426 0
vn -0.999305 -0.037286 0
vn -1 0 0
vn -0.999305 0.037286 0
vn -0.995746 0.0921426 0
vn -0.984811 0.17363 0
vn -0.956797 0.290758 0
vn -0.899539 0.436841 0
vn -0.811616 0.584191 0
vn -0.708411 0.705801 0
vn -0.591012 0.806663 0
vn -0.45163 0.892205 0
vn -0.309722 0.950827 0
vn -0.189557 0.98187 0
vn -0.100646 0.994922 0
vn -0.0404194 0.999183 0
vn -0.0083416 0.999965 0
vn 0 1 0
f 92//1 93//1 63//1 62//1
f 93//1 94//1 64//1 63//1
f 94//1 95//1 65//1 64//1
f 95//1 96//1 66//1 65//1
f 96//1 97//1 67//1 66//1
f 97//1 98//1 68//1 67//1
f 98//1 99//1 69//1 68//1
f 99//1 100//1 70//1 69//1
f 100//1 101//1 71//1 70//1
f 101//1 102//1 72//1 71//1
f 102//1 103//1 73//1 72//1
f 103//1 104//1 74//1 73//1
f 104//1 105//1 75//1 74//1
f 105//1 120//1 91//1 75//1
f 120//1 106//2 76//2 91//1
f 106//2 107//3 77//3 76//2
f 107//3 108//4 78//4 77//3
f 108//4 109//5 79//5 78//4
f 109//5 110//6 80//6 79//5
f 110//6 111//7 81//7 80//6
f 111//7 112//8 82//8 81//7
f 112//8 113//9 83//9 82//8
f 113//9 114//10 84//10 83//9
f 114//10 115//11 85//11 84//10
f 115//11 116//12 86//12 85//11
f 116//12 117//13 87//13 86//12
f 117//13 118//14 88//14 87//13
f 118//14 119//15 89//15 88//14
f 119//15 61//16 31//16 89//15
f 61//16 59//17 28//17 31//16
f 59//17 58//18 27//18 28//17
f 58//18 57//19 26//19 27//18
f 57//19 56//20 25//20 26//19
f 56//20 55//21 24//21 25//20
f 55//21 54//22 23//22 24//21
f 54//22 53//23 22//23 23//22
f 53//23 52//24 21//24 22//23
f 52//24 51//25 20//25 21//24
f 51//25 50//26 19//26 20//25
f 50//26 49//27 18//27 19//26
f 49//27 48//28 17//28 18//27
f 48//28 47//29 16//29 17//28
f 47//29 46//30 15//30 16//29
f 46//30 60//31 30//31 15//30
f 60//31 45//31 14//31 30//31
f 45//31 44//31 13//31 14//31
f 44//31 43//31 12//31 13//31
f 43//31 42//31 11//31 12//31
f 42//31 41//31 10//31 11//31
f 41//31 40//31 9//31 10//31
f 40//31 39//31 8//31 9//31
f 39//31 38//31 7//31 8//31
f 38//31 37//31 6//31 7//31
f 37//31 36//31 5//31 6//31
f 36//31 35//31 4//31 5//31
f 35//31 34//31 3//31 4//31
f 34//31 33//31 2//31 3//31
f 33//31 32//31 1//31 2//31
f 1//31 32//31 29//31
f 92//1 62//1 90//1
